<?xml version="1.0" encoding="utf-8" standalone="no"?>
<!DOCTYPE svg PUBLIC "-//W3C//DTD SVG 1.1//EN"
  "http://www.w3.org/Graphics/SVG/1.1/DTD/svg11.dtd">
<!-- Created with matplotlib (http://matplotlib.org/) -->
<svg height="281pt" version="1.1" viewBox="0 0 635 281" width="635pt" xmlns="http://www.w3.org/2000/svg" xmlns:xlink="http://www.w3.org/1999/xlink">
 <defs>
  <style type="text/css">
*{stroke-linecap:butt;stroke-linejoin:round;}
  </style>
 </defs>
 <g id="figure_1">
  <g id="patch_1">
   <path d="
M0 281.7
L635.4 281.7
L635.4 0
L0 0
z
" style="fill:#ffffff;"/>
  </g>
  <g id="axes_1">
   <g id="patch_2">
    <path d="
M79.425 253.53
L571.86 253.53
L571.86 28.17
L79.425 28.17
z
" style="fill:#ffffff;"/>
   </g>
   <g id="line2d_1">
    <path clip-path="url(#pa94453da61)" d="
M79.425 113.691
L84.3991 179.572
L89.3732 97.9977
L94.3473 178.883
L99.3214 180.038
L104.295 185.017
L109.27 233.873
L114.244 189.904
L119.218 181.436
L124.192 159.639
L129.166 215.052
L134.14 189.233
L139.114 208.989
L144.088 149.984
L149.062 123.828
L154.036 153.295
L159.01 119.639
L163.985 177.412
L168.959 136.234
L173.933 100.157
L178.907 160.863
L183.881 238.727
L188.855 156.773
L193.829 145.797
L198.803 124.423
L203.777 193.8
L208.751 142.573
L213.725 204.128
L218.7 140.71
L223.674 161.117
L228.648 156.1
L233.622 134.622
L238.596 176.11
L243.57 250.51
L248.544 115.589
L253.518 153.42
L258.492 148.828
L263.466 173.317
L268.44 167.893
L273.415 185.99
L278.389 175.32
L283.363 138.183
L288.337 141.857
L293.311 176.451
L298.285 115.288
L303.259 118.263
L308.233 149.127
L313.207 222.567
L318.181 99.2044
L323.155 144.16
L328.13 161.077
L333.104 166.021
L338.078 184.077
L343.052 172.16
L348.026 113.271
L353 176.258
L357.974 182.404
L362.948 126.436
L367.922 153.447
L372.896 120.043
L377.87 180.157
L382.845 190.342
L387.819 193.319
L392.793 167.2
L397.767 151.454
L402.741 146.922
L407.715 198.542
L412.689 104.262
L417.663 172.425
L422.637 163.594
L427.611 131.331
L432.585 189.611
L437.56 153.051
L442.534 163.188
L447.508 196.864
L452.482 78.3481
L457.456 169.099
L462.43 124.941
L467.404 179.211
L472.378 140.81
L477.352 166.05
L482.326 118.856
L487.3 162.096
L492.275 156.456
L497.249 111.017
L502.223 163.25
L507.197 131.364
L512.171 151.24
L517.145 192.296
L522.119 168.084
L527.093 185.409
L532.067 118.123
L537.041 142.498
L542.015 140.298
L546.99 162.674
L551.964 153.001
L556.938 175.785
L561.912 147.827
L566.886 214.572
L571.86 156.131" style="fill:none;stroke:#0000ff;stroke-linecap:square;"/>
   </g>
   <g id="line2d_2">
    <path clip-path="url(#pa94453da61)" d="
M79.425 137.953
L84.3991 175.077
L89.3732 179.952
L94.3473 112.791
L99.3214 190.332
L104.295 233.639
L109.27 182.172
L114.244 211.845
L119.218 201.011
L124.192 235.86
L129.166 175.017
L134.14 113.642
L139.114 141.661
L144.088 144.03
L149.062 202.56
L154.036 86.8372
L159.01 70.0507
L163.985 146.729
L168.959 187.166
L173.933 134.645
L178.907 173.212
L183.881 84.6411
L188.855 145.181
L193.829 183.274
L198.803 171.929
L203.777 189.106
L208.751 196.997
L213.725 138.664
L218.7 200.879
L223.674 95.4859
L228.648 122.828
L233.622 191.544
L238.596 148.604
L243.57 134.53
L248.544 143.803
L253.518 160.809
L258.492 153.225
L263.466 167.782
L268.44 90.734
L273.415 166.896
L278.389 126.985
L283.363 123.472
L288.337 163.68
L293.311 105.857
L298.285 57.1509
L303.259 136.648
L308.233 115.179
L313.207 149.444
L318.181 177.19
L323.155 169.388
L328.13 158.24
L333.104 158.642
L338.078 135.196
L343.052 86.4507
L348.026 176.823
L353 161.238
L357.974 114.855
L362.948 152.831
L367.922 225.954
L372.896 148.166
L377.87 133.579
L382.845 51.3968
L387.819 117.21
L392.793 171.529
L397.767 128.183
L402.741 186.817
L407.715 151.327
L412.689 197.523
L417.663 140.458
L422.637 119.023
L427.611 153.933
L432.585 195.969
L437.56 108.788
L442.534 101.524
L447.508 90.452
L452.482 60.7494
L457.456 115.83
L462.43 181.843
L467.404 135.945
L472.378 162.713
L477.352 157.079
L482.326 196.081
L487.3 103.289
L492.275 157.364
L497.249 133.703
L502.223 225.001
L507.197 136.958
L512.171 188.772
L517.145 169.352
L522.119 127.277
L527.093 91.8275
L532.067 102.293
L537.041 134.825
L542.015 75.6203
L546.99 233.976
L551.964 188.967
L556.938 140.959
L561.912 152.061
L566.886 105.185
L571.86 158.118" style="fill:none;stroke:#008000;stroke-linecap:square;"/>
   </g>
   <g id="matplotlib.axis_1">
    <g id="xtick_1">
     <g id="line2d_3">
      <defs>
       <path d="
M0 0
L0 -4" id="m93b0483c22" style="stroke:#000000;stroke-width:0.5;"/>
      </defs>
      <g>
       <use style="stroke:#000000;stroke-width:0.5;" x="79.425" xlink:href="#m93b0483c22" y="253.53"/>
      </g>
     </g>
     <g id="line2d_4">
      <defs>
       <path d="
M0 0
L0 4" id="m741efc42ff" style="stroke:#000000;stroke-width:0.5;"/>
      </defs>
      <g>
       <use style="stroke:#000000;stroke-width:0.5;" x="79.425" xlink:href="#m741efc42ff" y="28.17"/>
      </g>
     </g>
     <g id="text_1">
      <!-- 0 -->
      <defs>
       <path d="
M31.7812 66.4062
Q24.1719 66.4062 20.3281 58.9062
Q16.5 51.4219 16.5 36.375
Q16.5 21.3906 20.3281 13.8906
Q24.1719 6.39062 31.7812 6.39062
Q39.4531 6.39062 43.2812 13.8906
Q47.125 21.3906 47.125 36.375
Q47.125 51.4219 43.2812 58.9062
Q39.4531 66.4062 31.7812 66.4062
M31.7812 74.2188
Q44.0469 74.2188 50.5156 64.5156
Q56.9844 54.8281 56.9844 36.375
Q56.9844 17.9688 50.5156 8.26562
Q44.0469 -1.42188 31.7812 -1.42188
Q19.5312 -1.42188 13.0625 8.26562
Q6.59375 17.9688 6.59375 36.375
Q6.59375 54.8281 13.0625 64.5156
Q19.5312 74.2188 31.7812 74.2188" id="DejaVuSans-30"/>
      </defs>
      <g transform="translate(76.4015625 266.648125)scale(0.12 -0.12)">
       <use xlink:href="#DejaVuSans-30"/>
      </g>
     </g>
    </g>
    <g id="xtick_2">
     <g id="line2d_5">
      <g>
       <use style="stroke:#000000;stroke-width:0.5;" x="177.912" xlink:href="#m93b0483c22" y="253.53"/>
      </g>
     </g>
     <g id="line2d_6">
      <g>
       <use style="stroke:#000000;stroke-width:0.5;" x="177.912" xlink:href="#m741efc42ff" y="28.17"/>
      </g>
     </g>
     <g id="text_2">
      <!-- 20 -->
      <defs>
       <path d="
M19.1875 8.29688
L53.6094 8.29688
L53.6094 0
L7.32812 0
L7.32812 8.29688
Q12.9375 14.1094 22.625 23.8906
Q32.3281 33.6875 34.8125 36.5312
Q39.5469 41.8438 41.4219 45.5312
Q43.3125 49.2188 43.3125 52.7812
Q43.3125 58.5938 39.2344 62.25
Q35.1562 65.9219 28.6094 65.9219
Q23.9688 65.9219 18.8125 64.3125
Q13.6719 62.7031 7.8125 59.4219
L7.8125 69.3906
Q13.7656 71.7812 18.9375 73
Q24.125 74.2188 28.4219 74.2188
Q39.75 74.2188 46.4844 68.5469
Q53.2188 62.8906 53.2188 53.4219
Q53.2188 48.9219 51.5312 44.8906
Q49.8594 40.875 45.4062 35.4062
Q44.1875 33.9844 37.6406 27.2188
Q31.1094 20.4531 19.1875 8.29688" id="DejaVuSans-32"/>
      </defs>
      <g transform="translate(171.115125 266.648125)scale(0.12 -0.12)">
       <use xlink:href="#DejaVuSans-32"/>
       <use x="63.623046875" xlink:href="#DejaVuSans-30"/>
      </g>
     </g>
    </g>
    <g id="xtick_3">
     <g id="line2d_7">
      <g>
       <use style="stroke:#000000;stroke-width:0.5;" x="276.399" xlink:href="#m93b0483c22" y="253.53"/>
      </g>
     </g>
     <g id="line2d_8">
      <g>
       <use style="stroke:#000000;stroke-width:0.5;" x="276.399" xlink:href="#m741efc42ff" y="28.17"/>
      </g>
     </g>
     <g id="text_3">
      <!-- 40 -->
      <defs>
       <path d="
M37.7969 64.3125
L12.8906 25.3906
L37.7969 25.3906
z

M35.2031 72.9062
L47.6094 72.9062
L47.6094 25.3906
L58.0156 25.3906
L58.0156 17.1875
L47.6094 17.1875
L47.6094 0
L37.7969 0
L37.7969 17.1875
L4.89062 17.1875
L4.89062 26.7031
z
" id="DejaVuSans-34"/>
      </defs>
      <g transform="translate(269.455875 266.648125)scale(0.12 -0.12)">
       <use xlink:href="#DejaVuSans-34"/>
       <use x="63.623046875" xlink:href="#DejaVuSans-30"/>
      </g>
     </g>
    </g>
    <g id="xtick_4">
     <g id="line2d_9">
      <g>
       <use style="stroke:#000000;stroke-width:0.5;" x="374.886" xlink:href="#m93b0483c22" y="253.53"/>
      </g>
     </g>
     <g id="line2d_10">
      <g>
       <use style="stroke:#000000;stroke-width:0.5;" x="374.886" xlink:href="#m741efc42ff" y="28.17"/>
      </g>
     </g>
     <g id="text_4">
      <!-- 60 -->
      <defs>
       <path d="
M33.0156 40.375
Q26.375 40.375 22.4844 35.8281
Q18.6094 31.2969 18.6094 23.3906
Q18.6094 15.5312 22.4844 10.9531
Q26.375 6.39062 33.0156 6.39062
Q39.6562 6.39062 43.5312 10.9531
Q47.4062 15.5312 47.4062 23.3906
Q47.4062 31.2969 43.5312 35.8281
Q39.6562 40.375 33.0156 40.375
M52.5938 71.2969
L52.5938 62.3125
Q48.875 64.0625 45.0938 64.9844
Q41.3125 65.9219 37.5938 65.9219
Q27.8281 65.9219 22.6719 59.3281
Q17.5312 52.7344 16.7969 39.4062
Q19.6719 43.6562 24.0156 45.9219
Q28.375 48.1875 33.5938 48.1875
Q44.5781 48.1875 50.9531 41.5156
Q57.3281 34.8594 57.3281 23.3906
Q57.3281 12.1562 50.6875 5.35938
Q44.0469 -1.42188 33.0156 -1.42188
Q20.3594 -1.42188 13.6719 8.26562
Q6.98438 17.9688 6.98438 36.375
Q6.98438 53.6562 15.1875 63.9375
Q23.3906 74.2188 37.2031 74.2188
Q40.9219 74.2188 44.7031 73.4844
Q48.4844 72.75 52.5938 71.2969" id="DejaVuSans-36"/>
      </defs>
      <g transform="translate(368.0685 266.648125)scale(0.12 -0.12)">
       <use xlink:href="#DejaVuSans-36"/>
       <use x="63.623046875" xlink:href="#DejaVuSans-30"/>
      </g>
     </g>
    </g>
    <g id="xtick_5">
     <g id="line2d_11">
      <g>
       <use style="stroke:#000000;stroke-width:0.5;" x="473.373" xlink:href="#m93b0483c22" y="253.53"/>
      </g>
     </g>
     <g id="line2d_12">
      <g>
       <use style="stroke:#000000;stroke-width:0.5;" x="473.373" xlink:href="#m741efc42ff" y="28.17"/>
      </g>
     </g>
     <g id="text_5">
      <!-- 80 -->
      <defs>
       <path d="
M31.7812 34.625
Q24.75 34.625 20.7188 30.8594
Q16.7031 27.0938 16.7031 20.5156
Q16.7031 13.9219 20.7188 10.1562
Q24.75 6.39062 31.7812 6.39062
Q38.8125 6.39062 42.8594 10.1719
Q46.9219 13.9688 46.9219 20.5156
Q46.9219 27.0938 42.8906 30.8594
Q38.875 34.625 31.7812 34.625
M21.9219 38.8125
Q15.5781 40.375 12.0312 44.7188
Q8.5 49.0781 8.5 55.3281
Q8.5 64.0625 14.7188 69.1406
Q20.9531 74.2188 31.7812 74.2188
Q42.6719 74.2188 48.875 69.1406
Q55.0781 64.0625 55.0781 55.3281
Q55.0781 49.0781 51.5312 44.7188
Q48 40.375 41.7031 38.8125
Q48.8281 37.1562 52.7969 32.3125
Q56.7812 27.4844 56.7812 20.5156
Q56.7812 9.90625 50.3125 4.23438
Q43.8438 -1.42188 31.7812 -1.42188
Q19.7344 -1.42188 13.25 4.23438
Q6.78125 9.90625 6.78125 20.5156
Q6.78125 27.4844 10.7812 32.3125
Q14.7969 37.1562 21.9219 38.8125
M18.3125 54.3906
Q18.3125 48.7344 21.8438 45.5625
Q25.3906 42.3906 31.7812 42.3906
Q38.1406 42.3906 41.7188 45.5625
Q45.3125 48.7344 45.3125 54.3906
Q45.3125 60.0625 41.7188 63.2344
Q38.1406 66.4062 31.7812 66.4062
Q25.3906 66.4062 21.8438 63.2344
Q18.3125 60.0625 18.3125 54.3906" id="DejaVuSans-38"/>
      </defs>
      <g transform="translate(466.5433125 266.648125)scale(0.12 -0.12)">
       <use xlink:href="#DejaVuSans-38"/>
       <use x="63.623046875" xlink:href="#DejaVuSans-30"/>
      </g>
     </g>
    </g>
    <g id="xtick_6">
     <g id="line2d_13">
      <g>
       <use style="stroke:#000000;stroke-width:0.5;" x="571.86" xlink:href="#m93b0483c22" y="253.53"/>
      </g>
     </g>
     <g id="line2d_14">
      <g>
       <use style="stroke:#000000;stroke-width:0.5;" x="571.86" xlink:href="#m741efc42ff" y="28.17"/>
      </g>
     </g>
     <g id="text_6">
      <!-- 100 -->
      <defs>
       <path d="
M12.4062 8.29688
L28.5156 8.29688
L28.5156 63.9219
L10.9844 60.4062
L10.9844 69.3906
L28.4219 72.9062
L38.2812 72.9062
L38.2812 8.29688
L54.3906 8.29688
L54.3906 0
L12.4062 0
z
" id="DejaVuSans-31"/>
      </defs>
      <g transform="translate(561.465 266.648125)scale(0.12 -0.12)">
       <use xlink:href="#DejaVuSans-31"/>
       <use x="63.623046875" xlink:href="#DejaVuSans-30"/>
       <use x="127.24609375" xlink:href="#DejaVuSans-30"/>
      </g>
     </g>
    </g>
   </g>
   <g id="matplotlib.axis_2">
    <g id="ytick_1">
     <g id="line2d_15">
      <defs>
       <path d="
M0 0
L4 0" id="m728421d6d4" style="stroke:#000000;stroke-width:0.5;"/>
      </defs>
      <g>
       <use style="stroke:#000000;stroke-width:0.5;" x="79.425" xlink:href="#m728421d6d4" y="253.53"/>
      </g>
     </g>
     <g id="line2d_16">
      <defs>
       <path d="
M0 0
L-4 0" id="mcb0005524f" style="stroke:#000000;stroke-width:0.5;"/>
      </defs>
      <g>
       <use style="stroke:#000000;stroke-width:0.5;" x="571.86" xlink:href="#mcb0005524f" y="253.53"/>
      </g>
     </g>
     <g id="text_7">
      <!-- 140 -->
      <g transform="translate(54.635 256.84125)scale(0.12 -0.12)">
       <use xlink:href="#DejaVuSans-31"/>
       <use x="63.623046875" xlink:href="#DejaVuSans-34"/>
       <use x="127.24609375" xlink:href="#DejaVuSans-30"/>
      </g>
     </g>
    </g>
    <g id="ytick_2">
     <g id="line2d_17">
      <g>
       <use style="stroke:#000000;stroke-width:0.5;" x="79.425" xlink:href="#m728421d6d4" y="221.335714286"/>
      </g>
     </g>
     <g id="line2d_18">
      <g>
       <use style="stroke:#000000;stroke-width:0.5;" x="571.86" xlink:href="#mcb0005524f" y="221.335714286"/>
      </g>
     </g>
     <g id="text_8">
      <!-- 160 -->
      <g transform="translate(54.635 224.646964286)scale(0.12 -0.12)">
       <use xlink:href="#DejaVuSans-31"/>
       <use x="63.623046875" xlink:href="#DejaVuSans-36"/>
       <use x="127.24609375" xlink:href="#DejaVuSans-30"/>
      </g>
     </g>
    </g>
    <g id="ytick_3">
     <g id="line2d_19">
      <g>
       <use style="stroke:#000000;stroke-width:0.5;" x="79.425" xlink:href="#m728421d6d4" y="189.141428571"/>
      </g>
     </g>
     <g id="line2d_20">
      <g>
       <use style="stroke:#000000;stroke-width:0.5;" x="571.86" xlink:href="#mcb0005524f" y="189.141428571"/>
      </g>
     </g>
     <g id="text_9">
      <!-- 180 -->
      <g transform="translate(54.635 192.452678571)scale(0.12 -0.12)">
       <use xlink:href="#DejaVuSans-31"/>
       <use x="63.623046875" xlink:href="#DejaVuSans-38"/>
       <use x="127.24609375" xlink:href="#DejaVuSans-30"/>
      </g>
     </g>
    </g>
    <g id="ytick_4">
     <g id="line2d_21">
      <g>
       <use style="stroke:#000000;stroke-width:0.5;" x="79.425" xlink:href="#m728421d6d4" y="156.947142857"/>
      </g>
     </g>
     <g id="line2d_22">
      <g>
       <use style="stroke:#000000;stroke-width:0.5;" x="571.86" xlink:href="#mcb0005524f" y="156.947142857"/>
      </g>
     </g>
     <g id="text_10">
      <!-- 200 -->
      <g transform="translate(54.19625 160.258392857)scale(0.12 -0.12)">
       <use xlink:href="#DejaVuSans-32"/>
       <use x="63.623046875" xlink:href="#DejaVuSans-30"/>
       <use x="127.24609375" xlink:href="#DejaVuSans-30"/>
      </g>
     </g>
    </g>
    <g id="ytick_5">
     <g id="line2d_23">
      <g>
       <use style="stroke:#000000;stroke-width:0.5;" x="79.425" xlink:href="#m728421d6d4" y="124.752857143"/>
      </g>
     </g>
     <g id="line2d_24">
      <g>
       <use style="stroke:#000000;stroke-width:0.5;" x="571.86" xlink:href="#mcb0005524f" y="124.752857143"/>
      </g>
     </g>
     <g id="text_11">
      <!-- 220 -->
      <g transform="translate(54.19625 128.064107143)scale(0.12 -0.12)">
       <use xlink:href="#DejaVuSans-32"/>
       <use x="63.623046875" xlink:href="#DejaVuSans-32"/>
       <use x="127.24609375" xlink:href="#DejaVuSans-30"/>
      </g>
     </g>
    </g>
    <g id="ytick_6">
     <g id="line2d_25">
      <g>
       <use style="stroke:#000000;stroke-width:0.5;" x="79.425" xlink:href="#m728421d6d4" y="92.5585714286"/>
      </g>
     </g>
     <g id="line2d_26">
      <g>
       <use style="stroke:#000000;stroke-width:0.5;" x="571.86" xlink:href="#mcb0005524f" y="92.5585714286"/>
      </g>
     </g>
     <g id="text_12">
      <!-- 240 -->
      <g transform="translate(54.19625 95.8698214286)scale(0.12 -0.12)">
       <use xlink:href="#DejaVuSans-32"/>
       <use x="63.623046875" xlink:href="#DejaVuSans-34"/>
       <use x="127.24609375" xlink:href="#DejaVuSans-30"/>
      </g>
     </g>
    </g>
    <g id="ytick_7">
     <g id="line2d_27">
      <g>
       <use style="stroke:#000000;stroke-width:0.5;" x="79.425" xlink:href="#m728421d6d4" y="60.3642857143"/>
      </g>
     </g>
     <g id="line2d_28">
      <g>
       <use style="stroke:#000000;stroke-width:0.5;" x="571.86" xlink:href="#mcb0005524f" y="60.3642857143"/>
      </g>
     </g>
     <g id="text_13">
      <!-- 260 -->
      <g transform="translate(54.19625 63.6755357143)scale(0.12 -0.12)">
       <use xlink:href="#DejaVuSans-32"/>
       <use x="63.623046875" xlink:href="#DejaVuSans-36"/>
       <use x="127.24609375" xlink:href="#DejaVuSans-30"/>
      </g>
     </g>
    </g>
    <g id="ytick_8">
     <g id="line2d_29">
      <g>
       <use style="stroke:#000000;stroke-width:0.5;" x="79.425" xlink:href="#m728421d6d4" y="28.17"/>
      </g>
     </g>
     <g id="line2d_30">
      <g>
       <use style="stroke:#000000;stroke-width:0.5;" x="571.86" xlink:href="#mcb0005524f" y="28.17"/>
      </g>
     </g>
     <g id="text_14">
      <!-- 280 -->
      <g transform="translate(54.19625 31.48125)scale(0.12 -0.12)">
       <use xlink:href="#DejaVuSans-32"/>
       <use x="63.623046875" xlink:href="#DejaVuSans-38"/>
       <use x="127.24609375" xlink:href="#DejaVuSans-30"/>
      </g>
     </g>
    </g>
   </g>
   <g id="patch_3">
    <path d="
M79.425 28.17
L571.86 28.17" style="fill:none;stroke:#000000;"/>
   </g>
   <g id="patch_4">
    <path d="
M571.86 253.53
L571.86 28.17" style="fill:none;stroke:#000000;"/>
   </g>
   <g id="patch_5">
    <path d="
M79.425 253.53
L571.86 253.53" style="fill:none;stroke:#000000;"/>
   </g>
   <g id="patch_6">
    <path d="
M79.425 253.53
L79.425 28.17" style="fill:none;stroke:#000000;"/>
   </g>
  </g>
 </g>
 <defs>
  <clipPath id="pa94453da61">
   <rect height="225.36" width="492.435" x="79.425" y="28.17"/>
  </clipPath>
 </defs>
</svg>
