<?xml version="1.0" encoding="UTF-8" standalone="no"?>
<!-- Created with Inkscape (http://www.inkscape.org/) -->

<svg
   xmlns:dc="http://purl.org/dc/elements/1.1/"
   xmlns:cc="http://creativecommons.org/ns#"
   xmlns:rdf="http://www.w3.org/1999/02/22-rdf-syntax-ns#"
   xmlns:svg="http://www.w3.org/2000/svg"
   xmlns="http://www.w3.org/2000/svg"
   xmlns:sodipodi="http://sodipodi.sourceforge.net/DTD/sodipodi-0.dtd"
   xmlns:inkscape="http://www.inkscape.org/namespaces/inkscape"
   id="svg3004"
   version="1.1"
   inkscape:version="0.48.2 r9819"
   width="156"
   height="148.99771"
   xml:space="preserve"
   sodipodi:docname="te_zoom.svg"><metadata
     id="metadata3010"><rdf:RDF><cc:Work
         rdf:about=""><dc:format>image/svg+xml</dc:format><dc:type
           rdf:resource="http://purl.org/dc/dcmitype/StillImage" /><dc:title></dc:title></cc:Work></rdf:RDF></metadata><defs
     id="defs3008" /><sodipodi:namedview
     pagecolor="#ffffff"
     bordercolor="#666666"
     borderopacity="1"
     objecttolerance="10"
     gridtolerance="10"
     guidetolerance="10"
     inkscape:pageopacity="0"
     inkscape:pageshadow="2"
     inkscape:window-width="1045"
     inkscape:window-height="664"
     id="namedview3006"
     showgrid="false"
     inkscape:zoom="0.83486338"
     inkscape:cx="413.42106"
     inkscape:cy="-67.184203"
     inkscape:window-x="0"
     inkscape:window-y="0"
     inkscape:window-maximized="0"
     inkscape:current-layer="g3014"
     fit-margin-top="0"
     fit-margin-left="0"
     fit-margin-right="0"
     fit-margin-bottom="0" /><g
     id="g3012"
     inkscape:groupmode="layer"
     inkscape:label="te"
     transform="matrix(1.25,0,0,-1.25,-17.188312,448.05264)"><g
       id="g3014"><g
         id="g3040"
         transform="matrix(1,0,0,-1,-168.65035,521.43694)"><path
           inkscape:connector-curvature="0"
           d="m 306.801,183.395 c 0,4.418 -3.582,8 -8,8 -4.418,0 -8,-3.582 -8,-8 0,-4.418 3.582,-8 8,-8 4.418,0 8,3.582 8,8 z"
           style="fill:none;stroke:#000000;stroke-width:0.80000001;stroke-linecap:butt;stroke-linejoin:miter;stroke-miterlimit:4;stroke-opacity:1;stroke-dasharray:none"
           id="path3042" /></g><text
         transform="scale(1,-1)"
         id="text3044"
         x="126.14965"
         y="-339.64319"><tspan
           style="font-size:6.4000001px;font-variant:normal;font-weight:normal;writing-mode:lr-tb;fill:#000000;fill-opacity:1;fill-rule:nonzero;stroke:none;font-family:Arial;-inkscape-font-specification:ArialMT"
           x="126.14965 129.70805"
           y="-339.64319"
           sodipodi:role="line"
           id="tspan3046">LC</tspan><tspan
           style="font-size:6.4000001px;font-variant:normal;font-weight:normal;writing-mode:lr-tb;fill:#000000;fill-opacity:1;fill-rule:nonzero;stroke:none;font-family:Arial;-inkscape-font-specification:ArialMT"
           x="126.94965 130.50806"
           y="-332.44318"
           sodipodi:role="line"
           id="tspan3048">11</tspan></text>
<g
         id="g3050"
         transform="matrix(1,0,0,-1,-168.65035,521.43694)"><path
           inkscape:connector-curvature="0"
           d="m 290.801,183.395 16,0"
           style="fill:none;stroke:#000000;stroke-width:0.80000001;stroke-linecap:butt;stroke-linejoin:miter;stroke-miterlimit:4;stroke-opacity:1;stroke-dasharray:none"
           id="path3052" /></g><g
         id="g3064"
         transform="matrix(0.970588,0,0,-1,-168.65035,521.43694)"><path
           inkscape:connector-curvature="0"
           d="m 267.674,182.992 c 0,3.758 -3.047,6.801 -6.802,6.801 -3.755,0 -6.798,-3.043 -6.798,-6.801 0,-3.754 3.043,-6.797 6.798,-6.797 3.755,0 6.802,3.043 6.802,6.797 z"
           style="fill:none;stroke:#000000;stroke-width:0.81203097;stroke-linecap:butt;stroke-linejoin:miter;stroke-miterlimit:4;stroke-opacity:1;stroke-dasharray:none"
           id="path3066" /></g><text
         transform="scale(1,-1)"
         id="text3068"
         x="81.149651"
         y="-336.44318"><tspan
           style="font-size:6.4000001px;font-variant:normal;font-weight:normal;writing-mode:lr-tb;fill:#000000;fill-opacity:1;fill-rule:nonzero;stroke:none;font-family:Arial;-inkscape-font-specification:ArialMT"
           x="81.149651 84.708054"
           y="-336.44318"
           sodipodi:role="line"
           id="tspan3070">LT</tspan></text>
<g
         id="g3072"
         transform="matrix(1,0,0,-1,-168.65035,521.43694)"><path
           inkscape:connector-curvature="0"
           d="m 260.398,183.395 30.403,0"
           style="fill:none;stroke:#000000;stroke-width:0.80000001;stroke-linecap:butt;stroke-linejoin:miter;stroke-miterlimit:4;stroke-opacity:1;stroke-dasharray:2.4, 0.8;stroke-dashoffset:0"
           id="path3074" /></g><g
         id="g3076"
         transform="matrix(1,0,0,-1,-168.65035,521.43694)"><path
           inkscape:connector-curvature="0"
           d="m 238.801,187.395 c 8,0 8,8 8,8 l 0,56 c 0,12 -8,12 -8,12 l -16,0 c -8,0 -8,-12 -8,-12 l 0,-56 c 0,-8 8,-8 8,-8 l 16,0 z"
           style="fill:none;stroke:#000000;stroke-width:0.80000001;stroke-linecap:butt;stroke-linejoin:miter;stroke-miterlimit:4;stroke-opacity:1;stroke-dasharray:none"
           id="path3078" /></g><g
         id="g3080"
         transform="matrix(1,0,0,-1,-168.65035,521.43694)"><path
           inkscape:connector-curvature="0"
           d="m 226.801,179.395 9.597,0 0,-10.403 -11.199,0 0,10.403 1.602,0 z"
           style="fill:none;stroke:#000000;stroke-width:0.80000001;stroke-linecap:butt;stroke-linejoin:miter;stroke-miterlimit:4;stroke-opacity:1;stroke-dasharray:none"
           id="path3082" /></g><g
         id="g3084"
         transform="matrix(1,0,0,-1,-168.65035,521.43694)"><path
           inkscape:connector-curvature="0"
           d="m 230.801,179.395 0,70.398"
           style="fill:none;stroke:#000000;stroke-width:0.80000001;stroke-linecap:butt;stroke-linejoin:miter;stroke-miterlimit:4;stroke-opacity:1;stroke-dasharray:none"
           id="path3086" /></g><g
         id="g3088"
         transform="matrix(1,0,0,-1,-168.65035,521.43694)"><path
           inkscape:connector-curvature="0"
           d="m 225.199,249.793 12,0 0,-5.598 4.801,0 0,9.598 -4.801,0 0,-4"
           style="fill:none;stroke:#000000;stroke-width:0.80000001;stroke-linecap:butt;stroke-linejoin:miter;stroke-miterlimit:4;stroke-opacity:1;stroke-dasharray:none"
           id="path3090" /></g><g
         id="g3092"
         transform="matrix(1,0,0,-1,-168.65035,521.43694)"><path
           inkscape:connector-curvature="0"
           d="m 236.398,249.793 -12,0 0,-5.598 -4.796,0 0,9.598 4.796,0 0,-4"
           style="fill:none;stroke:#000000;stroke-width:0.80000001;stroke-linecap:butt;stroke-linejoin:miter;stroke-miterlimit:4;stroke-opacity:1;stroke-dasharray:none"
           id="path3094" /></g><g
         id="g3096"
         transform="matrix(1,0,0,-1,-168.65035,521.43694)"><path
           inkscape:connector-curvature="0"
           d="m 246,191.395 3.199,-3.2"
           style="fill:none;stroke:#000000;stroke-width:0.80000001;stroke-linecap:butt;stroke-linejoin:miter;stroke-miterlimit:4;stroke-opacity:1;stroke-dasharray:none"
           id="path3098" /></g><g
         id="g3100"
         transform="matrix(1,0,0,-1,-168.65035,521.43694)"><path
           inkscape:connector-curvature="0"
           d="m 302.801,200.992 0,11.203 -24,0 -5.602,-5.601 5.602,-5.602 24,0 z"
           style="fill:none;stroke:#000000;stroke-width:0.80000001;stroke-linecap:butt;stroke-linejoin:miter;stroke-miterlimit:4;stroke-opacity:1;stroke-dasharray:none"
           id="path3102" /></g><text
         transform="scale(1,-1)"
         id="text3104"
         x="112.54965"
         y="-312.44318"><tspan
           style="font-size:6.4000001px;font-variant:normal;font-weight:normal;writing-mode:lr-tb;fill:#000000;fill-opacity:1;fill-rule:nonzero;stroke:none;font-family:Arial;-inkscape-font-specification:ArialMT"
           x="112.54965 117.17046 123.20565"
           y="-312.44318"
           sodipodi:role="line"
           id="tspan3106">CWS</tspan></text>
<g
         id="g3108"
         transform="matrix(1,0,0,-1,-168.65035,521.43694)"><path
           inkscape:connector-curvature="0"
           d="m 273.199,206.594 -26.398,0"
           style="fill:none;stroke:#000000;stroke-width:0.80000001;stroke-linecap:butt;stroke-linejoin:miter;stroke-miterlimit:4;stroke-opacity:1;stroke-dasharray:none"
           id="path3110" /></g><g
         id="g3112"
         transform="matrix(1,0,0,-1,-168.65035,521.43694)"><path
           inkscape:connector-curvature="0"
           d="m 246.801,206.594 -9.602,0 5.602,4.801 -6.403,4 6.403,4.8 -6.403,4.797 6.403,4.801 -6.403,4 10.403,0"
           style="fill:none;stroke:#000000;stroke-width:0.80000001;stroke-linecap:butt;stroke-linejoin:miter;stroke-miterlimit:4;stroke-opacity:1;stroke-dasharray:none"
           id="path3114" /></g><g
         id="g3116"
         transform="matrix(0.939737,0,0,-1,-168.65035,521.43694)"><path
           inkscape:connector-curvature="0"
           d="m 272.841,231.238 0,5.11 4.256,-2.555 -4.256,-2.555 z"
           style="fill:#e97474;fill-opacity:1;fill-rule:nonzero;stroke:#000000;stroke-width:0.825252;stroke-linecap:butt;stroke-linejoin:miter;stroke-miterlimit:4;stroke-opacity:1;stroke-dasharray:none"
           id="path3118" /></g><g
         id="g3120"
         transform="matrix(0.939737,0,0,-1,-168.65035,521.43694)"><path
           inkscape:connector-curvature="0"
           d="m 283.058,231.238 0,5.11 -4.257,-2.555 4.257,-2.555 z"
           style="fill:#e97474;fill-opacity:1;fill-rule:nonzero;stroke:#000000;stroke-width:0.825252;stroke-linecap:butt;stroke-linejoin:miter;stroke-miterlimit:4;stroke-opacity:1;stroke-dasharray:none"
           id="path3122" /></g><g
         id="g3124"
         transform="matrix(0.939737,0,0,-1,-168.65035,521.43694)"><path
           inkscape:connector-curvature="0"
           d="m 277.949,233.793 0,5.109"
           style="fill:#e97474;fill-opacity:1;fill-rule:nonzero;stroke:#000000;stroke-width:0.82525301;stroke-linecap:butt;stroke-linejoin:miter;stroke-miterlimit:4;stroke-opacity:1;stroke-dasharray:none"
           id="path3126" /></g><g
         id="g3128"
         transform="matrix(0.939737,0,0,-1,-168.65035,521.43694)"><path
           inkscape:connector-curvature="0"
           d="m 273.693,238.902 8.513,0 c -4.257,7.063 -8.513,0 -8.513,0 z"
           style="fill:#e97474;fill-opacity:1;fill-rule:nonzero;stroke:#000000;stroke-width:0.825252;stroke-linecap:butt;stroke-linejoin:miter;stroke-miterlimit:4;stroke-opacity:1;stroke-dasharray:none"
           id="path3130" /></g><g
         id="g3132"
         transform="matrix(1,0,0,-1,-168.65035,521.43694)"><path
           inkscape:connector-curvature="0"
           d="m 246.801,233.793 9.597,0"
           style="fill:none;stroke:#000000;stroke-width:0.80000001;stroke-linecap:butt;stroke-linejoin:miter;stroke-miterlimit:4;stroke-opacity:1;stroke-dasharray:none"
           id="path3134" /></g><g
         id="g3136"
         transform="matrix(1,0,0,-1,-168.65035,521.43694)"><path
           inkscape:connector-curvature="0"
           d="m 266,233.793 8.801,0"
           style="fill:none;stroke:#000000;stroke-width:0.80000001;stroke-linecap:butt;stroke-linejoin:miter;stroke-miterlimit:4;stroke-opacity:1;stroke-dasharray:none"
           id="path3138" /></g><g
         id="g3140"
         transform="matrix(1,0,0,-1,-168.65035,521.43694)"><path
           inkscape:connector-curvature="0"
           d="m 274.801,228.195 0,11.2 24,0 5.597,-5.602 -5.597,-5.598 -24,0 z"
           style="fill:#cc0000;fill-opacity:1;fill-rule:nonzero;stroke:#000000;stroke-width:0.80000001;stroke-linecap:butt;stroke-linejoin:miter;stroke-miterlimit:4;stroke-opacity:1;stroke-dasharray:none"
           id="path3142" /></g><text
         transform="scale(1,-1)"
         id="text3144"
         x="112.83402"
         y="-285.24319"><tspan
           style="font-size:6.4000001px;font-variant:normal;font-weight:normal;writing-mode:lr-tb;fill:#000000;fill-opacity:1;fill-rule:nonzero;stroke:none;font-family:Arial;-inkscape-font-specification:ArialMT"
           x="112.83402 117.45482 123.49002"
           y="-285.24319"
           sodipodi:role="line"
           id="tspan3146">CWR</tspan></text>
<g
         id="g3148"
         transform="matrix(1,0,0,-1,-168.65035,521.43694)"><path
           inkscape:connector-curvature="0"
           d="m 269.199,273.793 c 0,4.418 -3.582,8 -8,8 -4.418,0 -8,-3.582 -8,-8 0,-4.418 3.582,-8 8,-8 4.418,0 8,3.582 8,8 z"
           style="fill:#e97474;fill-opacity:1;fill-rule:nonzero;stroke:#000000;stroke-width:0.80000001;stroke-linecap:butt;stroke-linejoin:miter;stroke-miterlimit:4;stroke-opacity:1;stroke-dasharray:none"
           id="path3150" /></g><text
         transform="scale(1,-1)"
         id="text3152"
         x="88.549652"
         y="-249.24319"><tspan
           style="font-size:6.4000001px;font-variant:normal;font-weight:normal;writing-mode:lr-tb;fill:#000000;fill-opacity:1;fill-rule:nonzero;stroke:none;font-family:Arial;-inkscape-font-specification:ArialMT"
           x="88.549652 92.453651"
           y="-249.24319"
           sodipodi:role="line"
           id="tspan3154">TC</tspan><tspan
           style="font-size:6.4000001px;font-variant:normal;font-weight:normal;writing-mode:lr-tb;fill:#000000;fill-opacity:1;fill-rule:nonzero;stroke:none;font-family:Arial;-inkscape-font-specification:ArialMT"
           x="89.349655 92.908051"
           y="-242.0432"
           sodipodi:role="line"
           id="tspan3156">16</tspan></text>
<g
         id="g3158"
         transform="matrix(1,0,0,-1,-168.65035,521.43694)"><path
           inkscape:connector-curvature="0"
           d="m 253.199,273.793 16,0"
           style="fill:none;stroke:#000000;stroke-width:0.80000001;stroke-linecap:butt;stroke-linejoin:miter;stroke-miterlimit:4;stroke-opacity:1;stroke-dasharray:none"
           id="path3160" /></g><g
         id="g3162"
         transform="matrix(1,0,0,-1,-168.65035,521.43694)"><path
           inkscape:connector-curvature="0"
           d="m 237.156,273.793 16.043,0"
           style="fill:none;stroke:#000000;stroke-width:0.80000001;stroke-linecap:butt;stroke-linejoin:miter;stroke-miterlimit:4;stroke-opacity:1;stroke-dasharray:2.4, 0.8;stroke-dashoffset:0"
           id="path3164" /></g><path
         inkscape:connector-curvature="0"
         d="m 75.997652,251.19478 9.614,-3.539 -9.614,-3.535 c 1.536,2.09 1.528,4.945 0,7.074 z"
         style="fill:#000000;fill-opacity:1;fill-rule:evenodd;stroke:none"
         id="path3166" /><g
         id="g3182"
         transform="matrix(1,0,0,-1,-168.65035,521.43694)"><path
           inkscape:connector-curvature="0"
           d="m 261.199,242.594 0,23.199"
           style="fill:none;stroke:#000000;stroke-width:0.80000001;stroke-linecap:butt;stroke-linejoin:miter;stroke-miterlimit:4;stroke-opacity:1;stroke-dasharray:2.4, 0.8;stroke-dashoffset:0"
           id="path3184" /></g><g
         id="g3186"
         transform="matrix(0.970588,0,0,-1,-168.65035,521.43694)"><path
           inkscape:connector-curvature="0"
           d="m 244.387,272.992 c 0,3.758 -3.042,6.801 -6.797,6.801 -3.759,0 -6.802,-3.043 -6.802,-6.801 0,-3.754 3.043,-6.797 6.802,-6.797 3.755,0 6.797,3.043 6.797,6.797 z"
           style="fill:#d42222;fill-opacity:1;fill-rule:nonzero;stroke:#000000;stroke-width:0.81203097;stroke-linecap:butt;stroke-linejoin:miter;stroke-miterlimit:4;stroke-opacity:1;stroke-dasharray:none"
           id="path3188" /></g><text
         transform="scale(1,-1)"
         id="text3190"
         x="58.549652"
         y="-246.44319"><tspan
           style="font-size:6.4000001px;font-variant:normal;font-weight:normal;writing-mode:lr-tb;fill:#000000;fill-opacity:1;fill-rule:nonzero;stroke:none;font-family:Arial;-inkscape-font-specification:ArialMT"
           x="58.549652 62.453651"
           y="-246.44319"
           sodipodi:role="line"
           id="tspan3192">TI</tspan></text>
<g
         id="g3194"
         transform="matrix(1,0,0,-1,-168.65035,521.43694)"><path
           inkscape:connector-curvature="0"
           d="m 230.801,263.395 0,3.199"
           style="fill:none;stroke:#000000;stroke-width:0.80000001;stroke-linecap:butt;stroke-linejoin:miter;stroke-miterlimit:4;stroke-opacity:1;stroke-dasharray:none"
           id="path3196" /></g><g
         id="g3198"
         transform="matrix(0.970588,0,0,-1,-168.65035,521.43694)"><path
           inkscape:connector-curvature="0"
           d="m 214.098,199.793 c 0,3.758 -3.047,6.801 -6.802,6.801 -3.755,0 -6.797,-3.043 -6.797,-6.801 0,-3.754 3.042,-6.801 6.797,-6.801 3.755,0 6.802,3.047 6.802,6.801 z"
           style="fill:none;stroke:#000000;stroke-width:0.81203097;stroke-linecap:butt;stroke-linejoin:miter;stroke-miterlimit:4;stroke-opacity:1;stroke-dasharray:none"
           id="path3200" /></g><text
         transform="scale(1,-1)"
         id="text3202"
         x="29.149652"
         y="-319.64319"><tspan
           style="font-size:6.4000001px;font-variant:normal;font-weight:normal;writing-mode:lr-tb;fill:#000000;fill-opacity:1;fill-rule:nonzero;stroke:none;font-family:Arial;-inkscape-font-specification:ArialMT"
           x="29.149652 33.412052"
           y="-319.64319"
           sodipodi:role="line"
           id="tspan3204">PI</tspan></text>
<g
         id="g3206"
         transform="matrix(1,0,0,-1,-168.65035,521.43694)"><path
           inkscape:connector-curvature="0"
           d="m 207.602,200.195 7.199,0"
           style="fill:none;stroke:#000000;stroke-width:0.80000001;stroke-linecap:butt;stroke-linejoin:miter;stroke-miterlimit:4;stroke-opacity:1;stroke-dasharray:none"
           id="path3208" /></g><g
         id="g3210"
         transform="matrix(1,0,0,-0.998148,-168.65035,521.43694)"><path
           inkscape:connector-curvature="0"
           d="m 198.828,171.713 c 0,4.426 -3.586,8.014 -8.012,8.014 -4.429,0 -8.015,-3.588 -8.015,-8.014 0,-4.427 3.586,-8.015 8.015,-8.015 4.426,0 8.012,3.588 8.012,8.015 z"
           style="fill:none;stroke:#000000;stroke-width:0.80074197;stroke-linecap:butt;stroke-linejoin:miter;stroke-miterlimit:4;stroke-opacity:1;stroke-dasharray:none"
           id="path3212" /></g><text
         transform="scale(1.0009272,-0.99907363)"
         id="text3214"
         x="18.140232"
         y="-351.96924"
         style="font-size:11.98888397px"><tspan
           style="font-size:6.40593386px;font-variant:normal;font-weight:normal;writing-mode:lr-tb;fill:#000000;fill-opacity:1;fill-rule:nonzero;stroke:none;font-family:Arial;-inkscape-font-specification:ArialMT"
           x="18.140232 22.406584"
           y="-351.96924"
           sodipodi:role="line"
           id="tspan3216">PC</tspan><tspan
           style="font-size:6.40593386px;font-variant:normal;font-weight:normal;writing-mode:lr-tb;fill:#000000;fill-opacity:1;fill-rule:nonzero;stroke:none;font-family:Arial;-inkscape-font-specification:ArialMT"
           x="18.940987 22.502686"
           y="-344.76257"
           sodipodi:role="line"
           id="tspan3218">12</tspan></text>
<g
         id="g3220"
         transform="matrix(1,0,0,-1,-168.65035,521.43694)"><path
           inkscape:connector-curvature="0"
           d="m 182.801,171.395 16.027,0"
           style="fill:none;stroke:#000000;stroke-width:0.80000001;stroke-linecap:butt;stroke-linejoin:miter;stroke-miterlimit:4;stroke-opacity:1;stroke-dasharray:none"
           id="path3222" /></g><g
         id="g3224"
         transform="matrix(1,0,0,-1,-168.65035,521.43694)"><path
           inkscape:connector-curvature="0"
           d="m 190.816,179.395 9.618,13.597"
           style="fill:none;stroke:#000000;stroke-width:0.80000001;stroke-linecap:butt;stroke-linejoin:miter;stroke-miterlimit:4;stroke-opacity:1;stroke-dasharray:2.4, 0.8;stroke-dashoffset:0"
           id="path3226" /></g><path
         inkscape:connector-curvature="0"
         d="m 36.798652,284.79278 9.614,-3.536 -9.614,-3.535 c 1.535,2.086 1.528,4.942 0,7.071 z"
         style="fill:#000000;fill-opacity:1;fill-rule:evenodd;stroke:none"
         id="path4222" /><g
         id="g4296"
         transform="matrix(1,0,0,-1,-168.65035,521.43694)"><path
           inkscape:connector-curvature="0"
           d="m 193.199,226.594 6.403,6.398 -6.403,6.403 -6.398,-6.403 6.398,-6.398 z"
           style="fill:none;stroke:#000000;stroke-width:0.80000001;stroke-linecap:butt;stroke-linejoin:miter;stroke-miterlimit:4;stroke-opacity:1;stroke-dasharray:none"
           id="path4298" /></g><text
         transform="scale(1,-1)"
         id="text4300"
         x="22.949633"
         y="-286.04318"><tspan
           style="font-size:6.4000001px;font-variant:normal;font-weight:normal;writing-mode:lr-tb;fill:#000000;fill-opacity:1;fill-rule:nonzero;stroke:none;font-family:Arial;-inkscape-font-specification:ArialMT"
           x="22.949633"
           y="-286.04318"
           id="tspan4302">6</tspan></text>
</g></g></svg>